<svg width="20" height="20" viewBox="0 0 20 20" fill="none" xmlns="http://www.w3.org/2000/svg">
<path d="M19.2836 7.27559L13.3329 6.41075L10.6727 1.01778C10.6 0.870126 10.4805 0.750595 10.3329 0.677938C9.96254 0.495126 9.51254 0.64747 9.32739 1.01778L6.66723 6.41075L0.71645 7.27559C0.552388 7.29903 0.402388 7.37638 0.287544 7.49356C0.148704 7.63627 0.0721972 7.82825 0.074834 8.02733C0.0774709 8.22642 0.159036 8.41631 0.301606 8.55528L4.60708 12.7529L3.58989 18.6803C3.56603 18.8182 3.58129 18.96 3.63393 19.0896C3.68657 19.2193 3.77448 19.3316 3.8877 19.4138C4.00092 19.496 4.13492 19.5449 4.2745 19.5549C4.41407 19.5648 4.55365 19.5355 4.67739 19.4701L10 16.6717L15.3227 19.4701C15.468 19.5475 15.6368 19.5732 15.7985 19.5451C16.2063 19.4748 16.4805 19.0881 16.4102 18.6803L15.393 12.7529L19.6985 8.55528C19.8157 8.44044 19.893 8.29044 19.9165 8.12638C19.9797 7.71622 19.6938 7.33653 19.2836 7.27559Z" fill="white"/>
</svg>
